<mxfile host="app.diagrams.net" modified="2023-05-06T07:56:18.526Z" agent="Mozilla/5.0 (Windows NT 10.0; WOW64) AppleWebKit/537.36 (KHTML, like Gecko) Chrome/108.0.5359.95 Safari/537.36" etag="ZR7GLQCV4RbrhKbcZ4aF" version="21.2.9" type="github">
  <diagram name="第 1 页" id="xT3pTGmpwD9RJvVYV9xg">
    <mxGraphModel dx="1190" dy="636" grid="1" gridSize="10" guides="1" tooltips="1" connect="1" arrows="1" fold="1" page="1" pageScale="1" pageWidth="827" pageHeight="1169" math="0" shadow="0">
      <root>
        <mxCell id="0" />
        <mxCell id="1" parent="0" />
        <mxCell id="XUT7Pcuhk9PH3D_sWJrL-119" value="" style="rounded=1;whiteSpace=wrap;html=1;dashed=1;" vertex="1" parent="1">
          <mxGeometry x="310" y="60" width="150" height="90" as="geometry" />
        </mxCell>
        <mxCell id="XUT7Pcuhk9PH3D_sWJrL-42" value="Linear + ReLu" style="rounded=0;whiteSpace=wrap;html=1;fillColor=#dae8fc;strokeColor=#6c8ebf;" vertex="1" parent="1">
          <mxGeometry x="120" y="430" width="110" height="30" as="geometry" />
        </mxCell>
        <mxCell id="XUT7Pcuhk9PH3D_sWJrL-43" value="Linear + ReLu" style="rounded=0;whiteSpace=wrap;html=1;fillColor=#fff2cc;strokeColor=#d6b656;" vertex="1" parent="1">
          <mxGeometry x="410" y="430" width="110" height="30" as="geometry" />
        </mxCell>
        <mxCell id="XUT7Pcuhk9PH3D_sWJrL-44" value="Linear + ReLu" style="rounded=0;whiteSpace=wrap;html=1;fillColor=#7EA6E0;strokeColor=#6c8ebf;" vertex="1" parent="1">
          <mxGeometry x="250" y="430" width="110" height="30" as="geometry" />
        </mxCell>
        <mxCell id="XUT7Pcuhk9PH3D_sWJrL-45" value="Linear + ReLu" style="rounded=0;whiteSpace=wrap;html=1;fillColor=#FFD966;strokeColor=#d6b656;" vertex="1" parent="1">
          <mxGeometry x="540" y="430" width="110" height="30" as="geometry" />
        </mxCell>
        <mxCell id="XUT7Pcuhk9PH3D_sWJrL-46" value="&lt;font style=&quot;font-size: 15px;&quot;&gt;Item embedding&lt;/font&gt;" style="rounded=0;whiteSpace=wrap;html=1;" vertex="1" parent="1">
          <mxGeometry x="120" y="480" width="240" height="30" as="geometry" />
        </mxCell>
        <mxCell id="XUT7Pcuhk9PH3D_sWJrL-47" value="&lt;font style=&quot;font-size: 15px;&quot;&gt;User embedding&lt;/font&gt;" style="rounded=0;whiteSpace=wrap;html=1;" vertex="1" parent="1">
          <mxGeometry x="410" y="480" width="240" height="30" as="geometry" />
        </mxCell>
        <mxCell id="XUT7Pcuhk9PH3D_sWJrL-48" value="" style="endArrow=none;html=1;rounded=0;endFill=0;" edge="1" parent="1">
          <mxGeometry width="50" height="50" relative="1" as="geometry">
            <mxPoint x="209.8" y="480" as="sourcePoint" />
            <mxPoint x="209.8" y="460" as="targetPoint" />
          </mxGeometry>
        </mxCell>
        <mxCell id="XUT7Pcuhk9PH3D_sWJrL-49" value="" style="endArrow=classicThin;html=1;rounded=0;endFill=1;" edge="1" parent="1">
          <mxGeometry width="50" height="50" relative="1" as="geometry">
            <mxPoint x="269.86" y="480" as="sourcePoint" />
            <mxPoint x="269.86" y="460" as="targetPoint" />
          </mxGeometry>
        </mxCell>
        <mxCell id="XUT7Pcuhk9PH3D_sWJrL-50" value="" style="endArrow=classicThin;html=1;rounded=0;endFill=1;" edge="1" parent="1">
          <mxGeometry width="50" height="50" relative="1" as="geometry">
            <mxPoint x="499.86" y="480" as="sourcePoint" />
            <mxPoint x="500.06" y="460" as="targetPoint" />
          </mxGeometry>
        </mxCell>
        <mxCell id="XUT7Pcuhk9PH3D_sWJrL-51" value="" style="endArrow=classicThin;html=1;rounded=0;endFill=1;" edge="1" parent="1">
          <mxGeometry width="50" height="50" relative="1" as="geometry">
            <mxPoint x="559.8599999999999" y="480" as="sourcePoint" />
            <mxPoint x="560.06" y="460" as="targetPoint" />
          </mxGeometry>
        </mxCell>
        <mxCell id="XUT7Pcuhk9PH3D_sWJrL-52" value="L + R" style="rounded=0;whiteSpace=wrap;html=1;fillColor=#dae8fc;strokeColor=#6c8ebf;" vertex="1" parent="1">
          <mxGeometry x="150" y="380" width="80" height="30" as="geometry" />
        </mxCell>
        <mxCell id="XUT7Pcuhk9PH3D_sWJrL-53" value="L + R" style="rounded=0;whiteSpace=wrap;html=1;fillColor=#fff2cc;strokeColor=#d6b656;" vertex="1" parent="1">
          <mxGeometry x="440" y="380" width="80" height="30" as="geometry" />
        </mxCell>
        <mxCell id="XUT7Pcuhk9PH3D_sWJrL-54" value="L + R" style="rounded=0;whiteSpace=wrap;html=1;fillColor=#7EA6E0;strokeColor=#6c8ebf;" vertex="1" parent="1">
          <mxGeometry x="250" y="380" width="80" height="30" as="geometry" />
        </mxCell>
        <mxCell id="XUT7Pcuhk9PH3D_sWJrL-55" value="L + R" style="rounded=0;whiteSpace=wrap;html=1;fillColor=#FFD966;strokeColor=#d6b656;" vertex="1" parent="1">
          <mxGeometry x="540" y="380" width="80" height="30" as="geometry" />
        </mxCell>
        <mxCell id="XUT7Pcuhk9PH3D_sWJrL-56" value="" style="endArrow=classicThin;html=1;rounded=0;endFill=1;" edge="1" parent="1">
          <mxGeometry width="50" height="50" relative="1" as="geometry">
            <mxPoint x="209.8" y="430" as="sourcePoint" />
            <mxPoint x="209.94" y="410" as="targetPoint" />
          </mxGeometry>
        </mxCell>
        <mxCell id="XUT7Pcuhk9PH3D_sWJrL-57" value="" style="endArrow=classicThin;html=1;rounded=0;endFill=1;" edge="1" parent="1">
          <mxGeometry width="50" height="50" relative="1" as="geometry">
            <mxPoint x="269.86" y="430" as="sourcePoint" />
            <mxPoint x="270" y="410" as="targetPoint" />
          </mxGeometry>
        </mxCell>
        <mxCell id="XUT7Pcuhk9PH3D_sWJrL-58" value="" style="endArrow=classicThin;html=1;rounded=0;endFill=1;" edge="1" parent="1">
          <mxGeometry width="50" height="50" relative="1" as="geometry">
            <mxPoint x="499.86" y="430" as="sourcePoint" />
            <mxPoint x="500" y="410" as="targetPoint" />
          </mxGeometry>
        </mxCell>
        <mxCell id="XUT7Pcuhk9PH3D_sWJrL-59" value="" style="endArrow=classicThin;html=1;rounded=0;endFill=1;" edge="1" parent="1">
          <mxGeometry width="50" height="50" relative="1" as="geometry">
            <mxPoint x="559.8599999999999" y="430" as="sourcePoint" />
            <mxPoint x="560" y="410" as="targetPoint" />
          </mxGeometry>
        </mxCell>
        <mxCell id="XUT7Pcuhk9PH3D_sWJrL-60" value="L + R" style="rounded=0;whiteSpace=wrap;html=1;fillColor=#dae8fc;strokeColor=#6c8ebf;" vertex="1" parent="1">
          <mxGeometry x="170" y="330" width="60" height="30" as="geometry" />
        </mxCell>
        <mxCell id="XUT7Pcuhk9PH3D_sWJrL-61" value="L + R" style="rounded=0;whiteSpace=wrap;html=1;fillColor=#7EA6E0;strokeColor=#6c8ebf;" vertex="1" parent="1">
          <mxGeometry x="250" y="330" width="60" height="30" as="geometry" />
        </mxCell>
        <mxCell id="XUT7Pcuhk9PH3D_sWJrL-62" value="" style="endArrow=classicThin;html=1;rounded=0;endFill=1;" edge="1" parent="1">
          <mxGeometry width="50" height="50" relative="1" as="geometry">
            <mxPoint x="209.52" y="380" as="sourcePoint" />
            <mxPoint x="209.66" y="360" as="targetPoint" />
          </mxGeometry>
        </mxCell>
        <mxCell id="XUT7Pcuhk9PH3D_sWJrL-63" value="" style="endArrow=classicThin;html=1;rounded=0;endFill=1;" edge="1" parent="1">
          <mxGeometry width="50" height="50" relative="1" as="geometry">
            <mxPoint x="269.86" y="380" as="sourcePoint" />
            <mxPoint x="270" y="360" as="targetPoint" />
          </mxGeometry>
        </mxCell>
        <mxCell id="XUT7Pcuhk9PH3D_sWJrL-64" value="" style="endArrow=classicThin;html=1;rounded=0;endFill=1;" edge="1" parent="1">
          <mxGeometry width="50" height="50" relative="1" as="geometry">
            <mxPoint x="499.86" y="380" as="sourcePoint" />
            <mxPoint x="500" y="360" as="targetPoint" />
          </mxGeometry>
        </mxCell>
        <mxCell id="XUT7Pcuhk9PH3D_sWJrL-65" value="" style="endArrow=classicThin;html=1;rounded=0;endFill=1;" edge="1" parent="1">
          <mxGeometry width="50" height="50" relative="1" as="geometry">
            <mxPoint x="559.8599999999999" y="380" as="sourcePoint" />
            <mxPoint x="560" y="360" as="targetPoint" />
          </mxGeometry>
        </mxCell>
        <mxCell id="XUT7Pcuhk9PH3D_sWJrL-66" value="dot product for CTR" style="rounded=1;whiteSpace=wrap;html=1;" vertex="1" parent="1">
          <mxGeometry x="80" y="290" width="70" height="30" as="geometry" />
        </mxCell>
        <mxCell id="XUT7Pcuhk9PH3D_sWJrL-67" value="dot product for CTCVR" style="rounded=1;whiteSpace=wrap;html=1;" vertex="1" parent="1">
          <mxGeometry x="350" y="240" width="70" height="30" as="geometry" />
        </mxCell>
        <mxCell id="XUT7Pcuhk9PH3D_sWJrL-68" value="concat&amp;nbsp; &amp;nbsp; &amp;nbsp; &amp;nbsp; &amp;nbsp; &amp;nbsp; &amp;nbsp; &amp;nbsp; &amp;nbsp; &amp;nbsp; &amp;nbsp; &amp;nbsp; &amp;nbsp; &amp;nbsp; &amp;nbsp; &amp;nbsp; &amp;nbsp; &amp;nbsp; &amp;nbsp; &amp;nbsp;" style="rounded=1;whiteSpace=wrap;html=1;fillColor=none;dashed=1;" vertex="1" parent="1">
          <mxGeometry x="130" y="230" width="180" height="50" as="geometry" />
        </mxCell>
        <mxCell id="XUT7Pcuhk9PH3D_sWJrL-69" value="L + R" style="rounded=0;whiteSpace=wrap;html=1;fillColor=#fff2cc;strokeColor=#d6b656;" vertex="1" parent="1">
          <mxGeometry x="460" y="330" width="60" height="30" as="geometry" />
        </mxCell>
        <mxCell id="XUT7Pcuhk9PH3D_sWJrL-70" value="L + R" style="rounded=0;whiteSpace=wrap;html=1;fillColor=#FFD966;strokeColor=#d6b656;" vertex="1" parent="1">
          <mxGeometry x="540" y="330" width="60" height="30" as="geometry" />
        </mxCell>
        <mxCell id="XUT7Pcuhk9PH3D_sWJrL-71" value="&amp;nbsp; &amp;nbsp; &amp;nbsp; &amp;nbsp; &amp;nbsp; &amp;nbsp; &amp;nbsp; &amp;nbsp; &amp;nbsp; &amp;nbsp; &amp;nbsp; &amp;nbsp; &amp;nbsp; &amp;nbsp; &amp;nbsp; &amp;nbsp; &amp;nbsp; &amp;nbsp; &amp;nbsp; &amp;nbsp; &amp;nbsp;concat&amp;nbsp;" style="rounded=1;whiteSpace=wrap;html=1;fillColor=none;dashed=1;" vertex="1" parent="1">
          <mxGeometry x="460" y="230" width="180" height="50" as="geometry" />
        </mxCell>
        <mxCell id="XUT7Pcuhk9PH3D_sWJrL-75" value="" style="endArrow=classicThin;html=1;rounded=0;exitX=0.5;exitY=0;exitDx=0;exitDy=0;endFill=1;entryX=1;entryY=0.5;entryDx=0;entryDy=0;" edge="1" parent="1" source="XUT7Pcuhk9PH3D_sWJrL-60" target="XUT7Pcuhk9PH3D_sWJrL-66">
          <mxGeometry width="50" height="50" relative="1" as="geometry">
            <mxPoint x="160" y="265" as="sourcePoint" />
            <mxPoint x="115" y="320" as="targetPoint" />
          </mxGeometry>
        </mxCell>
        <mxCell id="XUT7Pcuhk9PH3D_sWJrL-76" value="" style="endArrow=classicThin;html=1;rounded=0;entryX=1;entryY=0.5;entryDx=0;entryDy=0;endFill=1;exitX=0.5;exitY=0;exitDx=0;exitDy=0;" edge="1" parent="1" source="XUT7Pcuhk9PH3D_sWJrL-69" target="XUT7Pcuhk9PH3D_sWJrL-66">
          <mxGeometry width="50" height="50" relative="1" as="geometry">
            <mxPoint x="410" y="320" as="sourcePoint" />
            <mxPoint x="270" y="275" as="targetPoint" />
          </mxGeometry>
        </mxCell>
        <mxCell id="XUT7Pcuhk9PH3D_sWJrL-77" value="L + R" style="rounded=0;whiteSpace=wrap;html=1;fillColor=#dae8fc;strokeColor=#6c8ebf;" vertex="1" parent="1">
          <mxGeometry x="180" y="240" width="60" height="30" as="geometry" />
        </mxCell>
        <mxCell id="XUT7Pcuhk9PH3D_sWJrL-78" value="L + R" style="rounded=0;whiteSpace=wrap;html=1;fillColor=#7EA6E0;strokeColor=#6c8ebf;" vertex="1" parent="1">
          <mxGeometry x="240" y="240" width="60" height="30" as="geometry" />
        </mxCell>
        <mxCell id="XUT7Pcuhk9PH3D_sWJrL-79" value="L + R" style="rounded=0;whiteSpace=wrap;html=1;fillColor=#fff2cc;strokeColor=#d6b656;" vertex="1" parent="1">
          <mxGeometry x="470" y="240" width="60" height="30" as="geometry" />
        </mxCell>
        <mxCell id="XUT7Pcuhk9PH3D_sWJrL-80" value="L + R" style="rounded=0;whiteSpace=wrap;html=1;fillColor=#FFD966;strokeColor=#d6b656;" vertex="1" parent="1">
          <mxGeometry x="530" y="240" width="60" height="30" as="geometry" />
        </mxCell>
        <mxCell id="XUT7Pcuhk9PH3D_sWJrL-81" value="" style="endArrow=classicThin;html=1;rounded=0;entryX=0.447;entryY=1.017;entryDx=0;entryDy=0;entryPerimeter=0;endFill=1;" edge="1" parent="1">
          <mxGeometry width="50" height="50" relative="1" as="geometry">
            <mxPoint x="269.83000000000004" y="330" as="sourcePoint" />
            <mxPoint x="269.94" y="281" as="targetPoint" />
          </mxGeometry>
        </mxCell>
        <mxCell id="XUT7Pcuhk9PH3D_sWJrL-82" value="" style="endArrow=classic;html=1;rounded=0;entryX=0.447;entryY=1.017;entryDx=0;entryDy=0;entryPerimeter=0;dashed=1;dashPattern=1 2;" edge="1" parent="1">
          <mxGeometry width="50" height="50" relative="1" as="geometry">
            <mxPoint x="499.83" y="329" as="sourcePoint" />
            <mxPoint x="499.94" y="280" as="targetPoint" />
          </mxGeometry>
        </mxCell>
        <mxCell id="XUT7Pcuhk9PH3D_sWJrL-83" value="" style="endArrow=classic;html=1;rounded=0;entryX=0.447;entryY=1.017;entryDx=0;entryDy=0;entryPerimeter=0;" edge="1" parent="1">
          <mxGeometry width="50" height="50" relative="1" as="geometry">
            <mxPoint x="559.83" y="330" as="sourcePoint" />
            <mxPoint x="559.94" y="281" as="targetPoint" />
          </mxGeometry>
        </mxCell>
        <mxCell id="XUT7Pcuhk9PH3D_sWJrL-84" value="" style="endArrow=classicThin;html=1;rounded=0;entryX=0.447;entryY=1.017;entryDx=0;entryDy=0;entryPerimeter=0;dashed=1;dashPattern=1 2;endFill=1;" edge="1" parent="1">
          <mxGeometry width="50" height="50" relative="1" as="geometry">
            <mxPoint x="209.83" y="330" as="sourcePoint" />
            <mxPoint x="209.94" y="281" as="targetPoint" />
          </mxGeometry>
        </mxCell>
        <mxCell id="XUT7Pcuhk9PH3D_sWJrL-85" value="" style="endArrow=classicThin;html=1;rounded=0;entryX=0;entryY=0.5;entryDx=0;entryDy=0;exitX=1;exitY=0.5;exitDx=0;exitDy=0;endFill=1;" edge="1" parent="1" source="XUT7Pcuhk9PH3D_sWJrL-68" target="XUT7Pcuhk9PH3D_sWJrL-67">
          <mxGeometry width="50" height="50" relative="1" as="geometry">
            <mxPoint x="250" y="210" as="sourcePoint" />
            <mxPoint x="305" y="160" as="targetPoint" />
          </mxGeometry>
        </mxCell>
        <mxCell id="XUT7Pcuhk9PH3D_sWJrL-86" value="" style="endArrow=classicThin;html=1;rounded=0;entryX=1;entryY=0.5;entryDx=0;entryDy=0;exitX=0;exitY=0.5;exitDx=0;exitDy=0;endFill=1;" edge="1" parent="1" source="XUT7Pcuhk9PH3D_sWJrL-71" target="XUT7Pcuhk9PH3D_sWJrL-67">
          <mxGeometry width="50" height="50" relative="1" as="geometry">
            <mxPoint x="370" y="290" as="sourcePoint" />
            <mxPoint x="420" y="240" as="targetPoint" />
          </mxGeometry>
        </mxCell>
        <mxCell id="XUT7Pcuhk9PH3D_sWJrL-87" value="" style="endArrow=classicThin;html=1;rounded=0;endFill=1;exitX=0.75;exitY=0;exitDx=0;exitDy=0;dashed=1;dashPattern=1 2;" edge="1" parent="1" source="XUT7Pcuhk9PH3D_sWJrL-52">
          <mxGeometry width="50" height="50" relative="1" as="geometry">
            <mxPoint x="219.52" y="390" as="sourcePoint" />
            <mxPoint x="270" y="360" as="targetPoint" />
          </mxGeometry>
        </mxCell>
        <mxCell id="XUT7Pcuhk9PH3D_sWJrL-88" value="" style="endArrow=classicThin;html=1;rounded=0;endFill=1;entryX=0.25;entryY=1;entryDx=0;entryDy=0;exitX=0.75;exitY=0;exitDx=0;exitDy=0;dashed=1;dashPattern=1 2;" edge="1" parent="1" target="XUT7Pcuhk9PH3D_sWJrL-54">
          <mxGeometry width="50" height="50" relative="1" as="geometry">
            <mxPoint x="210" y="430" as="sourcePoint" />
            <mxPoint x="280" y="410" as="targetPoint" />
          </mxGeometry>
        </mxCell>
        <mxCell id="XUT7Pcuhk9PH3D_sWJrL-89" value="" style="endArrow=classicThin;html=1;rounded=0;endFill=1;entryX=0.171;entryY=0.98;entryDx=0;entryDy=0;exitX=0.75;exitY=0;exitDx=0;exitDy=0;dashed=1;dashPattern=1 2;entryPerimeter=0;" edge="1" parent="1" target="XUT7Pcuhk9PH3D_sWJrL-44">
          <mxGeometry width="50" height="50" relative="1" as="geometry">
            <mxPoint x="210" y="480" as="sourcePoint" />
            <mxPoint x="280" y="460" as="targetPoint" />
          </mxGeometry>
        </mxCell>
        <mxCell id="XUT7Pcuhk9PH3D_sWJrL-90" value="" style="endArrow=classicThin;html=1;rounded=0;endFill=1;exitX=0.75;exitY=0;exitDx=0;exitDy=0;dashed=1;dashPattern=1 2;" edge="1" parent="1">
          <mxGeometry width="50" height="50" relative="1" as="geometry">
            <mxPoint x="500" y="480" as="sourcePoint" />
            <mxPoint x="560" y="460" as="targetPoint" />
          </mxGeometry>
        </mxCell>
        <mxCell id="XUT7Pcuhk9PH3D_sWJrL-91" value="" style="endArrow=classicThin;html=1;rounded=0;endFill=1;exitX=0.75;exitY=0;exitDx=0;exitDy=0;dashed=1;dashPattern=1 2;" edge="1" parent="1">
          <mxGeometry width="50" height="50" relative="1" as="geometry">
            <mxPoint x="500" y="430" as="sourcePoint" />
            <mxPoint x="560" y="410" as="targetPoint" />
          </mxGeometry>
        </mxCell>
        <mxCell id="XUT7Pcuhk9PH3D_sWJrL-92" value="" style="endArrow=classicThin;html=1;rounded=0;endFill=1;exitX=0.75;exitY=0;exitDx=0;exitDy=0;dashed=1;dashPattern=1 2;" edge="1" parent="1">
          <mxGeometry width="50" height="50" relative="1" as="geometry">
            <mxPoint x="500" y="380" as="sourcePoint" />
            <mxPoint x="560" y="360" as="targetPoint" />
          </mxGeometry>
        </mxCell>
        <mxCell id="XUT7Pcuhk9PH3D_sWJrL-93" value="concat&amp;nbsp; &amp;nbsp; &amp;nbsp; &amp;nbsp; &amp;nbsp; &amp;nbsp; &amp;nbsp; &amp;nbsp; &amp;nbsp; &amp;nbsp; &amp;nbsp; &amp;nbsp; &amp;nbsp; &amp;nbsp; &amp;nbsp; &amp;nbsp; &amp;nbsp; &amp;nbsp; &amp;nbsp; &amp;nbsp;" style="rounded=1;whiteSpace=wrap;html=1;fillColor=none;dashed=1;" vertex="1" parent="1">
          <mxGeometry x="130" y="160" width="180" height="50" as="geometry" />
        </mxCell>
        <mxCell id="XUT7Pcuhk9PH3D_sWJrL-94" value="a(L + R)" style="rounded=0;whiteSpace=wrap;html=1;fillColor=#dae8fc;strokeColor=#6c8ebf;" vertex="1" parent="1">
          <mxGeometry x="180" y="170" width="60" height="30" as="geometry" />
        </mxCell>
        <mxCell id="XUT7Pcuhk9PH3D_sWJrL-95" value="b(L + R)" style="rounded=0;whiteSpace=wrap;html=1;fillColor=#7EA6E0;strokeColor=#6c8ebf;" vertex="1" parent="1">
          <mxGeometry x="240" y="170" width="60" height="30" as="geometry" />
        </mxCell>
        <mxCell id="XUT7Pcuhk9PH3D_sWJrL-96" value="&amp;nbsp; &amp;nbsp; &amp;nbsp; &amp;nbsp; &amp;nbsp; &amp;nbsp; &amp;nbsp; &amp;nbsp; &amp;nbsp; &amp;nbsp; &amp;nbsp; &amp;nbsp; &amp;nbsp; &amp;nbsp; &amp;nbsp; &amp;nbsp; &amp;nbsp; &amp;nbsp; &amp;nbsp; &amp;nbsp; &amp;nbsp;concat&amp;nbsp;" style="rounded=1;whiteSpace=wrap;html=1;fillColor=none;dashed=1;" vertex="1" parent="1">
          <mxGeometry x="460" y="160" width="180" height="50" as="geometry" />
        </mxCell>
        <mxCell id="XUT7Pcuhk9PH3D_sWJrL-97" value="L + R" style="rounded=0;whiteSpace=wrap;html=1;fillColor=#fff2cc;strokeColor=#d6b656;" vertex="1" parent="1">
          <mxGeometry x="470" y="170" width="60" height="30" as="geometry" />
        </mxCell>
        <mxCell id="XUT7Pcuhk9PH3D_sWJrL-98" value="L + R" style="rounded=0;whiteSpace=wrap;html=1;fillColor=#FFD966;strokeColor=#d6b656;" vertex="1" parent="1">
          <mxGeometry x="530" y="170" width="60" height="30" as="geometry" />
        </mxCell>
        <mxCell id="XUT7Pcuhk9PH3D_sWJrL-99" value="dot product for final score" style="rounded=1;whiteSpace=wrap;html=1;" vertex="1" parent="1">
          <mxGeometry x="340" y="170" width="90" height="30" as="geometry" />
        </mxCell>
        <mxCell id="XUT7Pcuhk9PH3D_sWJrL-100" value="" style="endArrow=classicThin;html=1;rounded=0;entryX=0;entryY=0.5;entryDx=0;entryDy=0;exitX=1;exitY=0.5;exitDx=0;exitDy=0;endFill=1;" edge="1" parent="1" target="XUT7Pcuhk9PH3D_sWJrL-99">
          <mxGeometry width="50" height="50" relative="1" as="geometry">
            <mxPoint x="310" y="185" as="sourcePoint" />
            <mxPoint x="305" y="90" as="targetPoint" />
          </mxGeometry>
        </mxCell>
        <mxCell id="XUT7Pcuhk9PH3D_sWJrL-101" value="" style="endArrow=classicThin;html=1;rounded=0;entryX=1;entryY=0.5;entryDx=0;entryDy=0;exitX=0;exitY=0.5;exitDx=0;exitDy=0;endFill=1;" edge="1" parent="1" target="XUT7Pcuhk9PH3D_sWJrL-99">
          <mxGeometry width="50" height="50" relative="1" as="geometry">
            <mxPoint x="460" y="185" as="sourcePoint" />
            <mxPoint x="420" y="170" as="targetPoint" />
          </mxGeometry>
        </mxCell>
        <mxCell id="XUT7Pcuhk9PH3D_sWJrL-102" value="" style="endArrow=classicThin;html=1;rounded=0;dashed=1;dashPattern=1 2;endFill=1;" edge="1" parent="1">
          <mxGeometry width="50" height="50" relative="1" as="geometry">
            <mxPoint x="240" y="229" as="sourcePoint" />
            <mxPoint x="240.24" y="210" as="targetPoint" />
            <Array as="points">
              <mxPoint x="240" y="220" />
            </Array>
          </mxGeometry>
        </mxCell>
        <mxCell id="XUT7Pcuhk9PH3D_sWJrL-105" value="" style="endArrow=classic;html=1;rounded=0;dashed=1;dashPattern=1 2;endFill=1;" edge="1" parent="1">
          <mxGeometry width="50" height="50" relative="1" as="geometry">
            <mxPoint x="530" y="229" as="sourcePoint" />
            <mxPoint x="530.24" y="210" as="targetPoint" />
            <Array as="points">
              <mxPoint x="530" y="220" />
            </Array>
          </mxGeometry>
        </mxCell>
        <mxCell id="XUT7Pcuhk9PH3D_sWJrL-106" value="" style="endArrow=classic;html=1;rounded=0;entryX=0.447;entryY=1.017;entryDx=0;entryDy=0;entryPerimeter=0;" edge="1" parent="1">
          <mxGeometry width="50" height="50" relative="1" as="geometry">
            <mxPoint x="559.71" y="330" as="sourcePoint" />
            <mxPoint x="559.82" y="281" as="targetPoint" />
          </mxGeometry>
        </mxCell>
        <mxCell id="XUT7Pcuhk9PH3D_sWJrL-111" value="" style="endArrow=classicThin;html=1;rounded=0;endFill=1;" edge="1" parent="1">
          <mxGeometry width="50" height="50" relative="1" as="geometry">
            <mxPoint x="209.83" y="480" as="sourcePoint" />
            <mxPoint x="209.83" y="460" as="targetPoint" />
          </mxGeometry>
        </mxCell>
        <mxCell id="XUT7Pcuhk9PH3D_sWJrL-117" value="" style="endArrow=classicThin;html=1;rounded=0;entryX=0;entryY=0.5;entryDx=0;entryDy=0;endFill=1;" edge="1" parent="1" target="XUT7Pcuhk9PH3D_sWJrL-120">
          <mxGeometry width="50" height="50" relative="1" as="geometry">
            <mxPoint x="240" y="160" as="sourcePoint" />
            <mxPoint x="320" y="120" as="targetPoint" />
            <Array as="points">
              <mxPoint x="240" y="125" />
            </Array>
          </mxGeometry>
        </mxCell>
        <mxCell id="XUT7Pcuhk9PH3D_sWJrL-118" value="" style="endArrow=classicThin;html=1;rounded=0;entryX=1;entryY=0.5;entryDx=0;entryDy=0;endFill=1;" edge="1" parent="1" target="XUT7Pcuhk9PH3D_sWJrL-120">
          <mxGeometry width="50" height="50" relative="1" as="geometry">
            <mxPoint x="530" y="160" as="sourcePoint" />
            <mxPoint x="450" y="120" as="targetPoint" />
            <Array as="points">
              <mxPoint x="530" y="125" />
            </Array>
          </mxGeometry>
        </mxCell>
        <mxCell id="XUT7Pcuhk9PH3D_sWJrL-120" value="Item embedding&lt;br&gt;index" style="rounded=0;whiteSpace=wrap;html=1;" vertex="1" parent="1">
          <mxGeometry x="325" y="110" width="120" height="30" as="geometry" />
        </mxCell>
        <mxCell id="XUT7Pcuhk9PH3D_sWJrL-121" value="Top N recall" style="rounded=0;whiteSpace=wrap;html=1;" vertex="1" parent="1">
          <mxGeometry x="325" y="70" width="120" height="30" as="geometry" />
        </mxCell>
      </root>
    </mxGraphModel>
  </diagram>
</mxfile>
